<svg width="30" height="28" viewBox="0 0 30 28" fill="none" xmlns="http://www.w3.org/2000/svg">
<path fill-rule="evenodd" clip-rule="evenodd" d="M21.875 17.6852C24.2912 17.6852 26.25 15.8973 26.25 13.6918C26.25 8.0204 21.2132 3.42285 15 3.42285C8.7868 3.42285 3.75 8.0204 3.75 13.6918C3.75 19.3631 8.7868 23.9607 15 23.9607C18.3319 23.9607 21.3254 22.6386 23.3854 20.5377H19.5095C18.1926 21.262 16.6496 21.6787 15 21.6787C10.1675 21.6787 6.25 18.1028 6.25 13.6918C6.25 9.28071 10.1675 5.70483 15 5.70483C19.8325 5.70483 23.75 9.28071 23.75 13.6918C23.75 14.637 22.9105 15.4033 21.875 15.4033C20.8395 15.4033 20 14.637 20 13.6918V9.12781H17.5V9.73838C16.7646 9.35006 15.9107 9.12781 15 9.12781C12.2386 9.12781 10 11.1712 10 13.6918C10 16.2124 12.2386 18.2557 15 18.2557C16.5564 18.2557 17.9467 17.6066 18.8637 16.5888C19.6481 17.2683 20.7082 17.6852 21.875 17.6852ZM17.5 13.6918C17.5 14.9521 16.3807 15.9737 15 15.9737C13.6193 15.9737 12.5 14.9521 12.5 13.6918C12.5 12.4315 13.6193 11.4098 15 11.4098C16.3807 11.4098 17.5 12.4315 17.5 13.6918Z" fill="#EDE8E8"/>
</svg>
