<svg width="30" height="30" viewBox="0 0 30 30" fill="none" xmlns="http://www.w3.org/2000/svg">
<path d="M15.0028 8.59164C11.4557 8.59164 8.59453 11.4528 8.59453 14.9999C8.59453 18.547 11.4557 21.4081 15.0028 21.4081C18.5499 21.4081 21.411 18.547 21.411 14.9999C21.411 11.4528 18.5499 8.59164 15.0028 8.59164ZM15.0028 19.1661C12.7105 19.1661 10.8366 17.2977 10.8366 14.9999C10.8366 12.7021 12.705 10.8337 15.0028 10.8337C17.3006 10.8337 19.169 12.7021 19.169 14.9999C19.169 17.2977 17.295 19.1661 15.0028 19.1661ZM23.1679 8.32951C23.1679 9.16052 22.4986 9.82421 21.6732 9.82421C20.8422 9.82421 20.1785 9.15494 20.1785 8.32951C20.1785 7.50408 20.8477 6.83481 21.6732 6.83481C22.4986 6.83481 23.1679 7.50408 23.1679 8.32951ZM27.4122 9.84652C27.3173 7.84429 26.86 6.07073 25.3932 4.60949C23.932 3.14825 22.1584 2.69092 20.1562 2.59053C18.0926 2.47341 11.9074 2.47341 9.84384 2.59053C7.84718 2.68534 6.07362 3.14267 4.6068 4.60391C3.13999 6.06515 2.68823 7.83871 2.58784 9.84095C2.47072 11.9045 2.47072 18.0897 2.58784 20.1533C2.68265 22.1555 3.13999 23.9291 4.6068 25.3903C6.07362 26.8515 7.84161 27.3089 9.84384 27.4093C11.9074 27.5264 18.0926 27.5264 20.1562 27.4093C22.1584 27.3145 23.932 26.8571 25.3932 25.3903C26.8544 23.9291 27.3118 22.1555 27.4122 20.1533C27.5293 18.0897 27.5293 11.9101 27.4122 9.84652ZM24.7462 22.3674C24.3112 23.4606 23.469 24.3027 22.3703 24.7433C20.725 25.3959 16.821 25.2453 15.0028 25.2453C13.1846 25.2453 9.27496 25.3903 7.63525 24.7433C6.54211 24.3083 5.69994 23.4662 5.25934 22.3674C4.6068 20.7222 4.75739 16.8181 4.75739 14.9999C4.75739 13.1817 4.61238 9.27207 5.25934 7.63236C5.69437 6.53922 6.53653 5.69705 7.63525 5.25645C9.28053 4.60391 13.1846 4.7545 15.0028 4.7545C16.821 4.7545 20.7306 4.60949 22.3703 5.25645C23.4635 5.69148 24.3056 6.53364 24.7462 7.63236C25.3988 9.27764 25.2482 13.1817 25.2482 14.9999C25.2482 16.8181 25.3988 20.7277 24.7462 22.3674Z" fill="#EDE8E8"/>
</svg>
