<svg width="30" height="30" viewBox="0 0 30 30" fill="none" xmlns="http://www.w3.org/2000/svg">
<path d="M13.4375 17.9759V25.6269L14.5127 27.2393C14.7446 27.5869 15.2559 27.5869 15.4878 27.2393L16.5625 25.6269V17.9759C16.0552 18.0696 15.5342 18.1253 15 18.1253C14.4658 18.1253 13.9448 18.0696 13.4375 17.9759ZM15 2.5C11.1166 2.5 7.96863 5.64801 7.96863 9.53139C7.96863 13.4148 11.1166 16.5628 15 16.5628C18.8834 16.5628 22.0314 13.4148 22.0314 9.53139C22.0314 5.64801 18.8834 2.5 15 2.5ZM15 6.21101C13.1689 6.21101 11.6796 7.7003 11.6796 9.53139C11.6796 9.85464 11.4169 10.1173 11.0937 10.1173C10.7704 10.1173 10.5077 9.85464 10.5077 9.53139C10.5077 7.05429 12.5234 5.03911 15 5.03911C15.3233 5.03911 15.586 5.30181 15.586 5.62506C15.586 5.94831 15.3233 6.21101 15 6.21101Z" fill="#EDE8E8"/>
</svg>
