<svg width="30" height="30" viewBox="0 0 30 30" fill="none" xmlns="http://www.w3.org/2000/svg">
<path d="M10.3776 27.2542C4.03609 20.9127 4.04551 10.6403 10.3776 4.30825C10.6558 4.03002 11.0869 3.98442 11.4158 4.18998L14.5807 6.16816C14.7476 6.27245 14.8725 6.43208 14.9337 6.61913C14.9948 6.80619 14.9882 7.00878 14.9151 7.1915L13.3327 11.1476C13.2651 11.3166 13.1444 11.459 12.9888 11.5534C12.8332 11.6478 12.6511 11.6891 12.47 11.671L9.74488 11.3985C8.717 14.2433 8.73843 17.3786 9.74488 20.1639L12.47 19.8914C12.6511 19.8733 12.8332 19.9145 12.9888 20.0089C13.1445 20.1034 13.2652 20.2458 13.3328 20.4148L14.9152 24.3709C14.9883 24.5537 14.9948 24.7562 14.9337 24.9433C14.8726 25.1304 14.7476 25.29 14.5808 25.3943L11.4159 27.3725C11.2549 27.473 11.0647 27.5161 10.8761 27.4946C10.6875 27.4731 10.5118 27.3884 10.3776 27.2542ZM17.6917 7.16176C18.2694 8.14062 18.2694 9.35942 17.6917 10.3383C17.4988 10.6651 17.0517 10.7269 16.7777 10.4643L16.486 10.1847C16.295 10.0017 16.252 9.71489 16.3756 9.4811C16.4946 9.25578 16.5568 9.00482 16.5568 8.75002C16.5568 8.49521 16.4946 8.24426 16.3756 8.01894C16.2519 7.78515 16.295 7.49833 16.486 7.31533L16.7777 7.03574C17.0517 6.77314 17.4988 6.83496 17.6917 7.16176ZM22.1735 2.70927C25.11 6.20556 25.1077 11.2973 22.1735 14.7907C21.955 15.0508 21.5617 15.0713 21.3165 14.8363L21.0334 14.5649C20.8107 14.3515 20.7903 14.002 20.9879 13.7652C23.4141 10.8581 23.4121 6.63954 20.9879 3.73481C20.7903 3.49799 20.8106 3.14848 21.0334 2.93505L21.3165 2.66372C21.5617 2.42871 21.955 2.44916 22.1735 2.70927ZM19.9288 4.90366C21.689 7.16547 21.6918 10.3309 19.9288 12.5963C19.7144 12.8718 19.3088 12.9016 19.0569 12.66L18.7728 12.3876C18.558 12.1816 18.5288 11.8458 18.7101 11.6097C20.0058 9.92202 20.0057 7.57787 18.7101 5.89028C18.5288 5.65414 18.558 5.31845 18.7728 5.1124L19.0569 4.83998C19.3088 4.59843 19.7144 4.62822 19.9288 4.90366Z" fill="#EDE8E8"/>
</svg>
